<?xml version="1.0" encoding="UTF-8"?>
<!DOCTYPE svg PUBLIC "-//W3C//DTD SVG 1.1//EN" "http://www.w3.org/Graphics/SVG/1.1/DTD/svg11.dtd">
<!-- Creator: CorelDRAW 2020 (64-Bit) -->
<svg xmlns="http://www.w3.org/2000/svg" xml:space="preserve" width="73.152mm" height="46.863mm" version="1.1" style="shape-rendering:geometricPrecision; text-rendering:geometricPrecision; image-rendering:optimizeQuality; fill-rule:evenodd; clip-rule:evenodd"
viewBox="0 0 6449.31 4131.59"
 xmlns:xlink="http://www.w3.org/1999/xlink"
 xmlns:xodm="http://www.corel.com/coreldraw/odm/2003">
 <defs>
  <style type="text/css">
   <![CDATA[
    .fil0 {fill:black}
   ]]>
  </style>
 </defs>
 <g id="Capa_x0020_1">
  <metadata id="CorelCorpID_0Corel-Layer"/>
  <path class="fil0" d="M1864.2 1990.2c116.16,77.76 209.6,172.73 287.5,292 58.45,89.5 153.43,285.75 153.43,426l-793.57 0 352.64 -718zm-488.42 2141.39l-190.03 0c-154.68,-11.71 -309.06,-52.39 -455.24,-125.91 -288.28,-144.98 -464.11,-325.81 -608.86,-612.97 -72.56,-143.95 -112.49,-304.84 -121.67,-468.68l0 -147.91c13.87,-250 97.57,-497.15 244.69,-692.37l136.76 -165.56c103.22,-93.34 240.16,-193.27 365.84,-251.37 278.6,-128.8 733.67,-172.13 1003.6,-29.3l260.85 -533.09c38.07,-72.5 32.64,-67.97 -4.45,-138.81l-193.4 -386.19c-102.55,23.87 -300.8,137.44 -370.74,18.03 -30.34,-51.79 -71.32,-332.94 93.6,-332.94l982.52 0c87.9,0 183.13,252.02 -440.79,251.89l188.87 390.52 2216.93 0 -88.16 -516.44c-169.17,0 -349.71,9.28 -498.7,-17.75 -114.29,-20.74 -282.27,-114.14 -282.27,-246.78 0,-68.49 58.11,-125.97 125.95,-125.97 106.9,0 77.25,89.66 237.04,115.67 203.7,33.13 538.55,-29.61 627.45,52.76 50.01,46.37 55.38,187.4 69.4,270.7 32.46,192.9 67.48,395.27 111.61,581.18l125.98 554.24c258.32,-60.18 570.5,-12.13 797.98,96.35 69.59,33.18 139.55,77.1 197.09,117.8 27.16,19.22 59.13,41.91 85.03,66.13 118.86,111.1 111.5,96.12 222.81,243.27 181.81,240.3 233.84,503.42 233.84,811.66 0,390.67 -240.9,768.43 -546.84,989.9 -249.25,180.43 -500.23,231.94 -813.56,231.94 -347.99,0 -673.47,-185.17 -891.41,-431.22 -14.5,-16.36 -22.27,-21.36 -37,-38.56 -463.75,-541.54 -361.84,-1410.73 197.56,-1835.61 45.89,-34.85 88.49,-64.27 142.75,-96.58 111.77,-66.58 73.01,-37.85 159.83,-79.51 -8.88,-106.62 -73.21,-233.8 -75.58,-340.1l-1092.93 1275.17c-17.2,19.32 -26.35,25.44 -42.58,45.61l-220.99 257.67c-97.81,117.79 -130.06,84.28 -381.79,84.28 -312.77,0 -265.98,-23.96 -284.63,93.24 -96.82,608.26 -622.02,1023.19 -1186.34,1065.62zm-216.93 -1297.41c0,86.5 62.01,138.55 151.16,138.55l995.12 0c0,212.17 -163.01,477.47 -311.51,620.63 -67.54,65.11 -191.92,145.79 -280.65,185.41 -697.09,311.15 -1448.45,-226.93 -1448.45,-894.22 0,-333.55 99.22,-571.8 299.05,-771.64 237.3,-237.29 566.55,-338.99 906.79,-283.05 46.27,7.62 101.86,30.01 154.56,34.38 -21.43,91.99 -466.07,898.4 -466.07,969.94zm3829.28 -1007.72l201.55 -12.59c515.28,0 995.1,465.12 995.1,982.52 0,338.27 -95.09,567.51 -299.15,771.54 -646.54,646.56 -1754.05,186.56 -1754.05,-733.75 0,-226.28 84.2,-439.83 181.55,-574.23 62.01,-85.61 98.07,-132.26 179.76,-198.13 50.83,-40.99 172.71,-141.31 243.31,-147.18 6.41,77.06 227.89,750.17 259.92,848.54 17.97,55.19 20.17,95.22 48.93,140.01 84.05,130.9 245.38,54.17 245.38,-56.43 0,-45.9 -129,-431.31 -152.76,-502.24l-149.55 -518.06zm-2808.98 -478.66l697.69 1357.97 -307.21 2.43c0,-290.11 -180.69,-590.11 -362.13,-771.52 -49.99,-49.98 -148.53,-154.85 -217.29,-173.21 8.12,-97.6 163.17,-305.05 188.94,-415.68zm226.75 -176.36l1939.82 0.02 -450.28 532.21c-29.82,32.07 -43.94,54.14 -75.58,88.18l-498.2 585.08c-16.49,19.48 -26.37,25.86 -42.85,45.33 -18.51,21.86 -14.23,20.97 -32.73,42.85 -46.61,55.08 -92.15,118.35 -134.79,129.73l-705.38 -1423.4z"/>
 </g>
</svg>
