<?xml version="1.0" encoding="UTF-8"?>
<!DOCTYPE svg PUBLIC "-//W3C//DTD SVG 1.1//EN" "http://www.w3.org/Graphics/SVG/1.1/DTD/svg11.dtd">
<!-- Creator: CorelDRAW 2020 (64-Bit) -->
<svg xmlns="http://www.w3.org/2000/svg" xml:space="preserve" width="69.4266mm" height="82.9732mm" version="1.1" style="shape-rendering:geometricPrecision; text-rendering:geometricPrecision; image-rendering:optimizeQuality; fill-rule:evenodd; clip-rule:evenodd"
viewBox="0 0 6147.92 7347.51"
 xmlns:xlink="http://www.w3.org/1999/xlink"
 xmlns:xodm="http://www.corel.com/coreldraw/odm/2003">
 <defs>
  <style type="text/css">
   <![CDATA[
    .fil0 {fill:black}
   ]]>
  </style>
 </defs>
 <g id="Capa_x0020_1">
  <metadata id="CorelCorpID_0Corel-Layer"/>
  <path class="fil0" d="M3036.47 2924c0,45.06 -0.01,90.08 0.17,135.13l-22.56 532.25c0.84,133.22 -22.59,277.1 -22.59,404.77 -36.91,-24.72 -52.33,-45.67 -84.68,-72.76l-209.75 -187.63c-15.72,-15.12 -25.67,-25.95 -41.09,-41.39 -39.46,-39.53 -83,-70.26 -117.5,-114.91 -75.47,-97.74 -113.06,-98.74 -140.5,-264.37 -32.9,-198.66 -2.59,-378.35 -131.82,-505.46 -28.98,-28.51 -45.17,-52.77 -75.01,-82.43 -29.34,-29.17 -53.63,-53.02 -82.63,-82.32l-1199.45 -1199.74c-37.32,-37.45 -173.91,-183.98 -229.08,-165.88 -103.47,33.94 13.07,137.51 48.38,181.63 99.87,124.77 688.52,701.98 814.23,827.71 28.07,28.06 50.58,50.72 78.73,78.71 29.87,29.69 46.08,54.05 74.91,82.54 172.22,170.27 162.25,186.66 58.17,241.73l-309.61 -305.19c-110.6,-92.45 -208.93,-202.1 -310.81,-303.98 -104.25,-104.25 -203.72,-202.56 -307.36,-307.43 -28.27,-28.6 -50.53,-42.56 -78.79,-71.16 -64.15,-64.89 -172.34,-177.83 -245.5,-226.83 -18.76,9 -32.29,11.38 -49.81,25.18 -71.66,56.41 -7.91,102.63 32.99,149.09l149.88 157.51c114.59,113.91 238.01,224.51 341.48,348.29 86.99,104.07 340.97,331.73 460.86,461.33l189.21 208.15c-8.63,37.06 -49.22,76.39 -82.34,60.55 -31.58,-15.11 -136.22,-122.59 -174.39,-156.21 -85.7,-75.46 -162.97,-162.85 -243.72,-243.61 -57.3,-57.29 -111.13,-103.63 -168.69,-161.19 -110.55,-110.55 -215.6,-215.6 -326.14,-326.14 -29.32,-29.32 -53.16,-53.15 -82.48,-82.47 -54.22,-54.23 -225.69,-223.06 -271.78,-223.06 -51.56,0 -59.99,37.22 -59.99,74.98 0,62.12 517.81,559.04 594.18,635.41 104.63,104.63 198.98,206.48 303.65,311.15 50.18,50.17 107.84,101.75 153.64,153.75 116.86,132.71 201.21,173.97 73.15,241.73 -35.19,-23.56 -49.95,-42.16 -80.65,-69.29l-157.45 -149.95c-137.58,-121.16 -263.56,-256.17 -393.56,-386.18 -100.14,-100.14 -204.69,-220.84 -314.14,-308.15 -100.68,-80.32 -292.69,-346.12 -378.67,-268.45 -10.47,9.46 -15.87,19.34 -17.58,29.38l0 14.84c5.72,35.85 49.76,72.14 73.19,97.43l1162.02 1177.19c15.56,15.55 25.74,25.69 41.17,41.3 20.23,20.46 27.27,23.78 48.46,41.5l210.12 202.25c210.69,203.62 500.91,43.71 709.12,220.56 35.22,29.91 53.52,46.95 85.75,79.19l161.19 168.69c15.53,15.48 26.07,25.6 41.39,41.09l369.11 395.64c-34.54,51.58 -941.63,945.37 -984.04,987.79 -184.3,184.3 -370.71,364.07 -547.22,554.91l-213.83 221.02c-10.27,11.66 -18.72,18.91 -29.99,29.99 -53.04,52.14 -144.27,148.62 -144.27,230.6 0,94.28 12.76,160.3 64.3,235.6 66.58,97.28 166.76,139.28 288.09,139.28 158.78,0 270.47,-145.73 358.76,-256.03 29.91,-37.37 69.94,-73.96 98.58,-111.35 28.56,-37.26 62.38,-69.75 93.14,-109.29l520.56 -611.56c9.66,-11.99 15.1,-15.65 25.34,-27.14 12.53,-14.06 11.25,-15.62 22.98,-29.5l48.57 -56.39c17.68,-20.29 29.86,-36.83 48.54,-56.43 19.53,-20.52 24.65,-32.13 44.94,-52.52 75.63,-76.06 278.38,-340.91 343.04,-384.21 0,58.21 -1.05,103.39 -6.4,151.04 -5.49,48.87 2.6,106.56 -1.49,155.96l-51.7 1065.43c-4.17,50.41 4,103.96 -3.56,153.89 -9.87,65.27 -14.58,391.55 1.12,455.06 19.15,77.47 77.84,138.36 140.23,182.15 29.95,21.02 74.63,34.63 123.19,40.72l119.4 0c40.57,-5.19 77.62,-15.87 104.45,-32.11 90.25,-54.62 167.06,-146.19 167.06,-267.79l0.04 -187.48c0.27,-52.58 -7.29,-74.85 -7.85,-119.61l-14.94 -352.43c-1.34,-44.88 2.43,-80.34 -4.09,-123.37 -7.11,-47.02 -13.5,-397.55 -23.61,-471.22 -5.29,-38.56 0.11,-78.79 -2.01,-117.94l-14.74 -360.14c-0.55,-44.75 -8.11,-67.03 -7.85,-119.61 0.22,-42.49 0.05,-85.02 0.05,-127.51 41.17,10.99 83.23,80.13 114.28,110.65 24.48,24.06 31.14,33.56 52.87,59.58 19.27,23.05 39.85,37.96 59.59,60.38l104.93 120c37.76,40.81 75.78,78.26 112.5,119.92l269.91 299.9c11.27,11.08 19.73,18.33 29.99,29.99 86.51,98.22 270.25,308.96 356.25,393.5l446.04 476.14c69.99,69.99 156.9,174.32 290.52,174.32 189.49,0 344.89,-116.56 344.89,-314.89 0,-216.39 -79.05,-244.43 -215.42,-376.88l-277.21 -247.61c-45.99,-38.46 -90,-87.13 -135.34,-127.06 -14.91,-13.13 -18.71,-13.23 -33.62,-26.36l-172.44 -157.44c-101.94,-89.77 -241.68,-233.82 -344.19,-315.6l-611.65 -565.44c-16.62,-16 -20.78,-16.37 -37.3,-30.18 -13.28,-11.1 -21.83,-21.03 -34.08,-33.39 -61.37,-61.94 -227.71,-196.6 -268.02,-256.79l252.35 -264.98c69.59,-56.67 461.14,-117.16 664.54,-205.17 203.59,-88.08 365.45,-205.13 520.84,-348.86 120.66,-111.6 231.96,-234.1 340.92,-356.35 81.89,-91.87 160.2,-193.43 229.26,-295.56l237.11 -370.19c174.78,-287.86 394.09,-773.49 394.09,-1127.9 0,-54.82 -20.27,-149.95 -67.48,-149.95 -67.58,0 -71.66,22.49 -124.29,63.15 -45.67,35.27 -81.15,85.14 -125.34,122.08 -103.57,86.58 -196.51,189.69 -292.06,285.24 -29.32,29.32 -53.15,53.15 -82.47,82.48l-86.31 78.63c-183.23,169.48 -466.01,466.19 -655.94,656.12 -220.51,220.51 -435.52,435.52 -656.03,656.03l-573.56 573.56c-23.92,23.92 -55.35,68.11 -88.09,76.85 0,-133.8 -15.76,-282.86 -14.91,-389.95 0.43,-54.41 -7.98,-74.82 -7.76,-127.2 0.4,-95.63 -7.54,-164.89 -7.15,-262.76 0.21,-52.27 -8.08,-72.82 -7.77,-127.18 1.16,-203.1 -23.19,-300.18 109.24,-475.77 202.41,-268.36 488.78,-423.26 548.59,-853.43 54.66,-393.13 -34.93,-803.4 -205.35,-1147.59 -85.98,-173.65 -349.72,-552.29 -579.83,-552.29 -204.39,0 -276.53,78.26 -402.99,204.3 -261.43,260.58 -417.91,706.16 -452.41,1062.08 -18.86,194.56 -16.31,443.58 48.79,612.37 54.07,140.16 120.49,240.81 209.13,345.68 229.42,271.47 402.55,332.04 402.55,699.58z"/>
 </g>
</svg>
