<?xml version="1.0" encoding="UTF-8"?>
<!DOCTYPE svg PUBLIC "-//W3C//DTD SVG 1.1//EN" "http://www.w3.org/Graphics/SVG/1.1/DTD/svg11.dtd">
<!-- Creator: CorelDRAW 2020 (64-Bit) -->
<svg xmlns="http://www.w3.org/2000/svg" xml:space="preserve" width="100.415mm" height="58.7491mm" version="1.1" style="shape-rendering:geometricPrecision; text-rendering:geometricPrecision; image-rendering:optimizeQuality; fill-rule:evenodd; clip-rule:evenodd"
viewBox="0 0 5837.84 3415.51"
 xmlns:xlink="http://www.w3.org/1999/xlink"
 xmlns:xodm="http://www.corel.com/coreldraw/odm/2003">
 <defs>
  <style type="text/css">
   <![CDATA[
    .fil0 {fill:black}
   ]]>
  </style>
 </defs>
 <g id="Capa_x0020_1">
  <metadata id="CorelCorpID_0Corel-Layer"/>
  <path class="fil0" d="M-0 486.56c0,116.98 77.51,163.03 145.38,230.89l2371.62 2371.62c63.59,63.59 118.83,118.83 182.44,182.43 192,192 246.97,192 438.97,0l2554.06 -2554.06c67.86,-67.86 145.38,-113.91 145.38,-230.89 0,-105.52 -83.09,-157.21 -139.68,-213.79 -156.69,-156.69 -259.87,-321.4 -419.35,-254.32 -55.28,23.25 -143.93,127.79 -190.65,174.5 -244.13,244.13 -479.9,479.91 -724.03,724.04 -242.23,242.22 -476.1,476.1 -718.33,718.32 -59.75,59.75 -678.36,688.69 -726.88,721.18 -57.06,-38.22 -2042.19,-2036.48 -2163.54,-2157.83 -143.77,-143.77 -245.53,-298.99 -427.62,-114.08 -63.09,64.06 -118.82,118.93 -182.38,182.49 -57.5,57.5 -145.38,112.78 -145.38,219.48z"/>
 </g>
</svg>
