<?xml version="1.0" encoding="UTF-8"?>
<!DOCTYPE svg PUBLIC "-//W3C//DTD SVG 1.1//EN" "http://www.w3.org/Graphics/SVG/1.1/DTD/svg11.dtd">
<!-- Creator: CorelDRAW 2020 (64-Bit) -->
<svg xmlns="http://www.w3.org/2000/svg" xml:space="preserve" width="21.7593mm" height="42.6719mm" version="1.1" style="shape-rendering:geometricPrecision; text-rendering:geometricPrecision; image-rendering:optimizeQuality; fill-rule:evenodd; clip-rule:evenodd"
viewBox="0 0 103.67 203.31"
 xmlns:xlink="http://www.w3.org/1999/xlink"
 xmlns:xodm="http://www.corel.com/coreldraw/odm/2003">
 <defs>
  <style type="text/css">
   <![CDATA[
    .fil0 {fill:black}
   ]]>
  </style>
 </defs>
 <g id="Capa_x0020_1">
  <metadata id="CorelCorpID_0Corel-Layer"/>
  <path class="fil0" d="M20.57 67.37l-20.57 0 0 34.29 22.19 0 0 100.04c0,0.94 0.67,1.61 1.61,1.61l43.57 0c0.93,0 1.21,-0.28 1.21,-1.21l0 -100.45 31.06 0c0,-3.75 1.55,-12.43 1.98,-16.98l2.05 -17.31 -31.87 0c-1.44,0 -3.23,-0.2 -3.23,-1.61l0 -20.98c0,-11.51 16.85,-9.28 24.61,-9.28 3.72,0 10.49,0.8 10.49,-1.21l0 -31.87c0,-1.24 -0.37,-2.42 -1.61,-2.42l-35.5 0c-13,0 -23.08,3.12 -32.28,10.08 -8.79,6.65 -12.09,18.04 -12.09,30.26l0 21.38c0.01,2.22 0.67,5.65 -1.61,5.65z"/>
 </g>
</svg>
