<?xml version="1.0" encoding="UTF-8"?>
<!DOCTYPE svg PUBLIC "-//W3C//DTD SVG 1.1//EN" "http://www.w3.org/Graphics/SVG/1.1/DTD/svg11.dtd">
<!-- Creator: CorelDRAW 2020 (64-Bit) -->
<svg xmlns="http://www.w3.org/2000/svg" xml:space="preserve" width="104.946mm" height="109.626mm" version="1.1" style="shape-rendering:geometricPrecision; text-rendering:geometricPrecision; image-rendering:optimizeQuality; fill-rule:evenodd; clip-rule:evenodd"
viewBox="0 0 3588.34 3748.38"
 xmlns:xlink="http://www.w3.org/1999/xlink"
 xmlns:xodm="http://www.corel.com/coreldraw/odm/2003">
 <defs>
  <style type="text/css">
   <![CDATA[
    .fil0 {fill:black}
   ]]>
  </style>
 </defs>
 <g id="Capa_x0020_1">
  <metadata id="CorelCorpID_0Corel-Layer"/>
  <g id="_2507195365568">
   <path class="fil0" d="M560.78 2390.69l-0.21 1018.48c-1.43,174.25 72.11,339.21 280.61,339.21l973.99 0 0 -368.92c159.94,-3.57 132.82,-113.57 132.82,-265.64 0,-84.94 -46.26,-103.31 -132.82,-103.31 0,-179.74 -37.72,-413.2 73.78,-413.2l649.33 0c47.71,0 73.8,53.56 73.8,103.29l0 1047.78c244.44,0 457.47,-0.54 457.47,-398.45l0 -914.96c0,-57.74 5.25,-7.18 -21.63,-37.39 -1.69,-1.9 -37.06,-30.78 -40.37,-33.43 -30.35,-24.19 -52.88,-41.21 -83.52,-64.04 -298.18,-222.11 -641.41,-516.89 -942.29,-740.06 -59.94,-44.45 -108.61,-89.77 -166.56,-128.58 -52.27,13.96 -109.39,74.79 -155.88,109.76 -122.76,92.35 -1035.42,832.64 -1098.51,849.47z"/>
   <path class="fil0" d="M944.47 1431.46c0,-453.41 87.62,-368.94 -457.47,-368.94 -116.75,0 -35.8,531.64 -58.51,753.17 -7.39,72.16 -113.78,133.19 -207.23,205.97 -38.5,30.02 -72.02,58.7 -113.75,92.85 -165.83,135.62 -45.86,320.45 84.34,320.45 99.06,0 308.04,-201.16 419.58,-288.76 211.1,-165.8 1040.28,-856.16 1203.74,-965.61l1369.05 1110.19c101.34,82.69 203.74,201.51 337.41,109.27 83.3,-57.48 96.2,-184.13 -5.11,-279.25l-1217.75 -981.09c-76.8,-62.84 -392.67,-342.82 -468.86,-342.82 -122.86,0 -155.35,51.3 -269.03,144.16 -70.99,58.01 -133.6,111.38 -203.2,165.73 -83.56,65.26 -346.65,289.46 -413.21,324.67z"/>
   <path class="fil0" d="M309.91 398.45l-29.51 -14.76 29.51 14.76zm-29.51 -14.76l0 0zm29.51 14.76c128.18,34.22 352.51,300.13 427.96,442.73 120.88,-80.94 172.72,-452.56 -402.06,-586.7 -80.53,-18.79 -254.55,-57.36 -335.81,-18.37 13.16,49.27 39.98,58.82 71.38,105.71 87.8,131.11 79.59,283.14 130.64,415.4 68.08,176.46 273.27,265.44 476.84,157.74 -76.36,-159.12 -9.41,-91.72 -155.79,-286.95 -66.76,-89.05 -154.17,-141.46 -213.15,-229.56z"/>
   <path class="fil0" d="M1077.29 132.82l-14.75 14.75 14.75 -14.75zm0 0l0 0zm-14.75 14.75c-49.29,73.61 -145.73,145.79 -177.09,280.4 56.42,13.14 217,78.73 289.81,-93.88 35.11,-83.21 32.37,-173.31 82.18,-257.25 24.65,-41.52 28.78,-30.24 41.21,-76.83 -169.1,0 -280.01,24.19 -383.53,88.68 -47.46,29.56 -88.53,68.34 -105.28,132.01 -15.56,59.19 -2.98,127.03 46.1,162.99 15.72,-67.54 135.5,-217.15 206.6,-236.13z"/>
  </g>
 </g>
</svg>
