<?xml version="1.0" encoding="UTF-8"?>
<!DOCTYPE svg PUBLIC "-//W3C//DTD SVG 1.1//EN" "http://www.w3.org/Graphics/SVG/1.1/DTD/svg11.dtd">
<!-- Creator: CorelDRAW 2020 (64-Bit) -->
<svg xmlns="http://www.w3.org/2000/svg" xml:space="preserve" width="42.3504mm" height="42.3536mm" version="1.1" style="shape-rendering:geometricPrecision; text-rendering:geometricPrecision; image-rendering:optimizeQuality; fill-rule:evenodd; clip-rule:evenodd"
viewBox="0 0 801.2 801.26"
 xmlns:xlink="http://www.w3.org/1999/xlink"
 xmlns:xodm="http://www.corel.com/coreldraw/odm/2003">
 <defs>
  <style type="text/css">
   <![CDATA[
    .fil0 {fill:black}
   ]]>
  </style>
 </defs>
 <g id="Capa_x0020_1">
  <metadata id="CorelCorpID_0Corel-Layer"/>
  <path class="fil0" d="M89.74 518.06l0.17 -295.01c-0.09,-139.7 35.56,-132.83 163.7,-132.87 98.09,-0.03 196.17,-0.05 294.26,0.01 130.42,0.08 163.63,-5.48 163.75,133.19 0.08,98.23 0.29,196.54 -0.05,294.77 -0.33,81.2 16.77,167.82 -57.16,189.26 -40.42,11.72 -189.18,3.05 -242.97,4.63 -42.36,1.43 -87.09,-0.01 -129.71,-0.12 -177.72,-0.46 -198.75,13.75 -191.98,-193.87zm-88.85 -273.21l0.17 264.88c1.34,41.11 -4.02,94.96 1.45,133.87 9.93,28.81 6.63,45.48 33.97,80.08 82.15,103.95 158.35,71.21 277.16,76.99l164.12 0.02c42.22,1.21 85.98,0.07 128.4,0.14 51.13,0.09 66.01,-5.9 104.78,-26.05 30.5,-20.87 57.53,-45.01 75.09,-85.56 19.84,-45.79 14.51,-93.39 14.5,-146.6 -0.01,-107.51 0.98,-215.47 -0.01,-322.91 -0.51,-44.45 2.19,-68.02 -14.56,-106.81 -12.02,-27.85 -35.54,-55.81 -53.08,-69.05 -70.13,-52.92 -98.73,-41.35 -198.43,-42.61 -57.98,-0.62 -350.91,-3.77 -386.09,3.17 -55.36,10.91 -92.87,46.41 -115.84,78.43 -34.97,48.74 -31.64,93.97 -31.64,162.01z"/>
  <path class="fil0" d="M313.52 417.72c-10.26,-53.36 28.65,-96.53 72.15,-104.08 52.6,-9.13 94.73,28.99 102.35,71.85 20.42,114.85 -152.67,145.83 -174.5,32.22zm-31.98 -149.91c-15.31,21.42 -29.77,26.6 -46.06,68 -36.2,91.94 10.36,193.54 96.12,228.82 131.94,54.28 262.18,-54.12 245.15,-188.04 -27.09,-140.09 -164.36,-183.65 -258.59,-133.05l-36.62 24.28z"/>
  <path class="fil0" d="M587.43 147.74c-74.35,21.07 -40.65,126 27.84,107 25.35,-7.03 48.26,-34.31 38.93,-68.22 -6.84,-24.85 -34.55,-47.91 -66.76,-38.78z"/>
 </g>
</svg>
