<?xml version="1.0" encoding="UTF-8"?>
<!DOCTYPE svg PUBLIC "-//W3C//DTD SVG 1.1//EN" "http://www.w3.org/Graphics/SVG/1.1/DTD/svg11.dtd">
<!-- Creator: CorelDRAW 2020 (64-Bit) -->
<svg xmlns="http://www.w3.org/2000/svg" xml:space="preserve" width="102.047mm" height="76.5634mm" version="1.1" style="shape-rendering:geometricPrecision; text-rendering:geometricPrecision; image-rendering:optimizeQuality; fill-rule:evenodd; clip-rule:evenodd"
viewBox="0 0 4923.09 3693.69"
 xmlns:xlink="http://www.w3.org/1999/xlink"
 xmlns:xodm="http://www.corel.com/coreldraw/odm/2003">
 <defs>
  <style type="text/css">
   <![CDATA[
    .fil0 {fill:black}
   ]]>
  </style>
 </defs>
 <g id="Capa_x0020_1">
  <metadata id="CorelCorpID_0Corel-Layer"/>
  <g id="_2507193525152">
   <path class="fil0" d="M1028.85 1855.77c0,-1028.63 999.86,-1737.09 2020.63,-1318.7 91.8,37.63 256.73,137.15 327.81,201.04 301.57,271.14 516.96,604.98 516.96,1127.27 0,777.08 -630.17,1413.47 -1451.92,1413.47 -483.23,0 -886.9,-237.98 -1158,-611.25 -47.77,-65.78 -98.43,-151.49 -129.14,-226.62 -70.92,-173.5 -126.33,-342.1 -126.33,-585.21zm-413.46 -76.93c0,326.09 36.57,584.33 169.86,849.38 78.49,156.06 140.29,271.28 256.08,407.38 90.62,106.5 124.04,135.47 225.66,226.28 18.45,16.49 39.1,31.55 58.61,47.15 22.65,18.12 41.77,32.15 66.62,48.76 133.58,89.36 140.6,90.67 280.82,161.49 518.56,261.83 1211.24,220.44 1711.18,-67.76 46.14,-26.6 90.97,-56.9 135.05,-86.1 97.78,-64.74 118.43,-94.34 188.22,-148.32 174.04,-134.61 327.03,-384.12 427.18,-582.44 260.94,-516.82 222.08,-1222.22 -71.37,-1717.17 -85.26,-143.8 -173.57,-263.36 -291.66,-381.43 -264.18,-264.18 -728.15,-536.05 -1252.41,-536.05 -321.07,0 -582.55,40.08 -839.81,169.8 -145.96,73.59 -142.73,68.84 -281.4,160.91 -45.09,29.94 -85.48,60.83 -125.93,95.23 -44.12,37.55 -79.98,69.45 -120.65,110.12 -116.75,116.75 -202.71,234.14 -287.99,375.48 -132.02,218.8 -248.06,565.88 -248.06,867.31z"/>
   <path class="fil0" d="M2365.39 1230.77l403.85 0 0 403.84 -403.85 0 0 -403.84zm-423.08 1644.23l423.08 0 0 -817.31c266.93,0 506.87,36.76 679.99,-108.48 28.92,-24.25 77.94,-89.35 95.87,-125.29 64.55,-129.32 41.45,-419.58 41.45,-593.15 0,-226.08 -187.4,-413.47 -413.47,-413.47l-826.92 0 0 2057.7z"/>
   <path class="fil0" d="M-0 1749.99c0,454.18 45.85,756.22 224.31,1141.08l154.59 278.11c69.35,106.02 166.1,247.2 253.26,333.27 26.67,26.33 59.46,45.54 69.76,84.09 43.62,-3.62 78.18,-54.13 127.41,-103.36 37.81,-37.82 84.79,-75.7 112.98,-117.79 -19.51,-29.14 -39.86,-41.13 -63.25,-71.37 -126.95,-164.08 -153.64,-164.29 -283.41,-389.67 -99.71,-173.19 -187.27,-372.86 -229.5,-578.19 -15.92,-77.41 -30.2,-143.5 -40.07,-229.18 -33,-286.81 -17.17,-452.52 40.07,-730.84 42.23,-205.33 129.79,-404.99 229.5,-578.18 170.29,-295.78 286.83,-371.7 346.66,-461.04 -28.19,-42.09 -75.17,-79.97 -112.98,-117.79 -49.23,-49.23 -83.79,-99.73 -127.41,-103.36 -7.56,28.32 -93.73,111.59 -132.47,155.99l-157.41 207.96c-11.55,16.55 -17.92,29.85 -29.32,47.61 -216.16,337 -382.72,795.6 -382.72,1232.67z"/>
   <path class="fil0" d="M3980.78 326.92c59.83,89.35 176.36,165.27 346.66,461.04 99.71,173.19 187.27,372.85 229.5,578.18 77.88,378.66 77.88,581.36 0,960.02 -67.15,326.45 -243.76,641.48 -449.71,896.44l-126.45 142.79c16.74,24.99 192.7,210.99 230.77,221.15l137.59 -150.87c47.47,-56.46 88.07,-107.31 129.74,-168.34 75,-109.86 164.57,-249.36 216.22,-370.32 188.75,-442.13 227.99,-661.15 227.99,-1147.02 0,-431.41 -168.23,-914.7 -408.11,-1274.58l-303.43 -369.64c-35.86,9.57 -206.99,185.64 -230.77,221.15z"/>
  </g>
 </g>
</svg>
