<?xml version="1.0" encoding="UTF-8"?>
<!DOCTYPE svg PUBLIC "-//W3C//DTD SVG 1.1//EN" "http://www.w3.org/Graphics/SVG/1.1/DTD/svg11.dtd">
<!-- Creator: CorelDRAW 2020 (64-Bit) -->
<svg xmlns="http://www.w3.org/2000/svg" xml:space="preserve" width="135.467mm" height="103.875mm" version="1.1" style="shape-rendering:geometricPrecision; text-rendering:geometricPrecision; image-rendering:optimizeQuality; fill-rule:evenodd; clip-rule:evenodd"
viewBox="0 0 11818.26 9062.18"
 xmlns:xlink="http://www.w3.org/1999/xlink"
 xmlns:xodm="http://www.corel.com/coreldraw/odm/2003">
 <defs>
  <style type="text/css">
   <![CDATA[
    .fil0 {fill:black;fill-rule:nonzero}
   ]]>
  </style>
 </defs>
 <g id="Capa_x0020_1">
  <metadata id="CorelCorpID_0Corel-Layer"/>
  <g id="_2507086756048">
   <path class="fil0" d="M440.99 7066.37c4491.32,-1276.74 6132.96,1303.31 11118.39,1.96 185.03,-48.29 295.85,-237.45 247.56,-422.46 -48.29,-185 -237.45,-295.83 -422.46,-247.56 -978.77,255.5 -1827.14,350.07 -2595.4,351.08l-1003.79 -1617.85c593.36,737.28 1696.12,779.78 2342.26,92.7 284.07,-302.05 433.51,-696.68 420.82,-1111.15 -42.61,-1389.43 -1744.97,-2012.87 -2682.51,-1015.96 -451.63,480.25 -533.55,1163.11 -279.28,1714.09l-1373.51 -2213.71 2038.23 -588.16c632.99,-182.65 932.14,-907.21 610.53,-1483.52 -233.53,-418.44 -718.21,-617.92 -1178.57,-485.06l-3085.74 890.45c-800.06,230.89 -1158.35,1160.93 -719.04,1869.02l932.68 1503.21c-672.32,417.33 -2804.75,1739.68 -2827.4,1755.38 -535.26,56.58 -1108.49,164.16 -1732.07,341.44 -183.92,52.28 -290.65,243.78 -238.38,427.72 52.26,183.97 243.82,290.65 427.67,238.38l0.01 0zm7929.28 -3494.79c325.92,-346.56 869.98,-362.28 1215.55,-37.3 346.19,325.57 362.92,869.31 37.3,1215.57 -325.53,346.15 -869.31,362.92 -1215.55,37.3 -346.22,-325.6 -362.92,-869.33 -37.3,-1215.57zm-2788.21 661.04l-1115.18 -1797.41c-196.96,-317.45 -36.61,-734.94 322.6,-838.61l3085.74 -890.45c149.28,-43.11 306.23,21.58 381.92,157.16 104.43,187.13 6.83,421.64 -197.84,480.72l-2477.47 714.93c-220.51,63.64 -319,320.55 -198.21,515.2l2568.76 4140.13c-1615.48,-135.61 -2928.11,-622.84 -4590.19,-696.84l2108.22 -1308.11c162.48,-100.8 212.48,-314.24 111.65,-476.72l-0.01 0z"/>
   <path class="fil0" d="M11384.49 8014.1c-4769.84,1245.12 -6443.58,-1331.08 -11132.83,1.96 -183.92,52.28 -290.65,243.78 -238.38,427.72 52.27,183.94 243.85,290.68 427.72,238.38 4491.32,-1276.74 6132.96,1303.31 11118.39,1.96 185.03,-48.29 295.85,-237.45 247.56,-422.46 -48.29,-185.03 -237.45,-295.83 -422.46,-247.56z"/>
  </g>
 </g>
</svg>
