<?xml version="1.0" encoding="UTF-8"?>
<!DOCTYPE svg PUBLIC "-//W3C//DTD SVG 1.1//EN" "http://www.w3.org/Graphics/SVG/1.1/DTD/svg11.dtd">
<!-- Creator: CorelDRAW 2020 (64-Bit) -->
<svg xmlns="http://www.w3.org/2000/svg" xml:space="preserve" width="43.3492mm" height="36.2058mm" version="1.1" style="shape-rendering:geometricPrecision; text-rendering:geometricPrecision; image-rendering:optimizeQuality; fill-rule:evenodd; clip-rule:evenodd"
viewBox="0 0 467.45 390.42"
 xmlns:xlink="http://www.w3.org/1999/xlink"
 xmlns:xodm="http://www.corel.com/coreldraw/odm/2003">
 <defs>
  <style type="text/css">
   <![CDATA[
    .fil0 {fill:black}
   ]]>
  </style>
 </defs>
 <g id="Capa_x0020_1">
  <metadata id="CorelCorpID_0Corel-Layer"/>
  <path class="fil0" d="M227.34 97.45c0,7.57 1.29,17.5 2.74,23.74l-33.25 -4.18c-46.45,-8.71 -92,-29.48 -127.22,-60.86 -4.64,-4.13 -16.47,-14.18 -19.39,-18.04l-18.26 -20.09c-0.76,3.25 -5.49,10.83 -8.76,22.28 -7.26,25.43 -4.16,53.82 8.8,76.28 1.81,3.13 3.72,6.33 5.97,9.55 9.05,12.96 21.91,21.58 23.21,23.35 -7.95,-0.66 -16.12,-2.14 -23.16,-4.23 -3.69,-1.09 -6.82,-2.11 -10.03,-3.67 -3.29,-1.6 -5.8,-3.64 -9.72,-3.97 0,36.38 18.09,66.69 45.27,84.37 6.36,4.14 14.8,8.26 22.17,10.7 1.53,0.51 2.22,0.57 4.34,1.14l4 1.48c-13.69,1.14 -23.17,5.3 -42,0.91 3.82,16.4 18.47,36.34 31.31,47.21 15.26,12.91 35.75,21.26 57.25,21.26 -3.02,4.5 -16.59,12.81 -22.2,16.15 -30.45,18.14 -62.65,25.85 -101.06,25.85 -7.17,0 -10.38,-0.91 -17.35,-0.91 0.96,0.83 0.14,0.19 1.58,1.16 0.62,0.42 1.72,1.1 2.23,1.42 49.35,30.16 105.14,46.06 164.13,41.2 53.5,-4.41 113.16,-25 152.75,-61.81 11.17,-10.38 23.01,-20.66 32.64,-33.09 32.92,-42.49 53.61,-83.27 62.73,-138.13 2.74,-16.47 4.06,-30.7 3.9,-49.96 -0.05,-5.68 -0.97,-7.67 1.97,-10.81l27.94 -25.93c4.77,-5.13 14.63,-17.93 17.58,-23.51 -3.43,0.8 -7.97,3.32 -11.75,4.68 -10.02,3.6 -29.92,9.93 -40.29,9.93 2.28,-3.11 11.84,-7.32 23.23,-22.42 3.44,-4.56 6.18,-8.72 9.02,-13.81 5.28,-9.47 4.54,-11.59 7.01,-16.73 -4.93,1.15 -9.43,4.75 -13.98,7.02 -10.46,5.23 -38.24,15.8 -47.19,15.8 -0.94,0 -7.8,-7.41 -9.51,-8.75 -28.43,-22.23 -64.71,-28.99 -98.22,-14.07 -15.72,7 -31.12,19.85 -40.37,33.59 -10.32,15.33 -18.07,35.94 -18.07,55.89z"/>
 </g>
</svg>
